<svg xmlns="http://www.w3.org/2000/svg" viewBox="19161 14402 142.797 45">
    <defs>
        <style>
            .cls-1,.cls-2{fill:none}.cls-1{clip-rule:evenodd}.cls-3{clip-path:url(#clip-path)}.cls-4{clip-path:url(#clip-path-2)}.cls-5{clip-path:url(#clip-path-3)}.cls-6{clip-path:url(#clip-path-4)}.cls-7{clip-path:url(#clip-path-5)}.cls-8{fill:#97d3c7}.cls-9{clip-path:url(#clip-path-6)}.cls-10{clip-path:url(#clip-path-8)}.cls-11{clip-path:url(#clip-path-9)}.cls-12{clip-path:url(#clip-path-10)}.cls-13{fill:#77b97a}.cls-14{clip-path:url(#clip-path-11)}.cls-15{fill:#7db487}.cls-16{clip-path:url(#clip-path-13)}.cls-17{fill:#9ec9c7}.cls-18{clip-path:url(#clip-path-15)}.cls-19{clip-path:url(#clip-path-17)}.cls-20{fill:#83cdbe}.cls-21{clip-path:url(#clip-path-19)}.cls-22{fill:#71c7b4}.cls-23{clip-path:url(#clip-path-21)}.cls-24{clip-path:url(#clip-path-23)}.cls-25{clip-path:url(#clip-path-25)}.cls-26{fill:#6dc4a9}.cls-27{clip-path:url(#clip-path-27)}.cls-28{fill:#6dc1ab}.cls-29{clip-path:url(#clip-path-29)}.cls-30{fill:#74c7b4}.cls-31{clip-path:url(#clip-path-31)}.cls-32{fill:#6ec4b3}.cls-33{clip-path:url(#clip-path-33)}.cls-34{fill:#6bc1b0}.cls-35{clip-path:url(#clip-path-35)}.cls-36{clip-path:url(#clip-path-37)}.cls-37{clip-path:url(#clip-path-39)}.cls-38{clip-path:url(#clip-path-41)}.cls-39{fill:#61aa63}.cls-40{clip-path:url(#clip-path-43)}.cls-41{fill:#61aa66}.cls-42{clip-path:url(#clip-path-45)}.cls-43{clip-path:url(#clip-path-47)}.cls-44{clip-path:url(#clip-path-49)}.cls-45{fill:#67b070}.cls-46{clip-path:url(#clip-path-51)}.cls-47{fill:#61aa6a}.cls-48{clip-path:url(#clip-path-53)}.cls-49{clip-path:url(#clip-path-55)}.cls-50{fill:#61ad6a}.cls-51{clip-path:url(#clip-path-57)}.cls-52{fill:#fff}.cls-53{clip-path:url(#clip-path-59)}.cls-54{clip-path:url(#clip-path-61)}.cls-55{clip-path:url(#clip-path-62)}.cls-56{clip-path:url(#clip-path-63)}.cls-57{clip-path:url(#clip-path-64)}.cls-58{clip-path:url(#clip-path-66)}.cls-59{clip-path:url(#clip-path-68)}.cls-60{clip-path:url(#clip-path-69)}.cls-61{clip-path:url(#clip-path-70)}.cls-62{clip-path:url(#clip-path-71)}.cls-63{clip-path:url(#clip-path-73)}.cls-64{clip-path:url(#clip-path-75)}.cls-65{clip-path:url(#clip-path-77)}.cls-66{clip-path:url(#clip-path-79)}.cls-67{clip-path:url(#clip-path-81)}.cls-68{clip-path:url(#clip-path-83)}.cls-69{clip-path:url(#clip-path-85)}.cls-70{clip-path:url(#clip-path-87)}.cls-71{clip-path:url(#clip-path-89)}.cls-72{clip-path:url(#clip-path-91)}.cls-73{clip-path:url(#clip-path-93)}.cls-74{clip-path:url(#clip-path-95)}.cls-75{clip-path:url(#clip-path-97)}
        </style>
        <clipPath id="clip-path">
            <path id="Path_219" d="M38.48-34.777l-2.628.02a9.415 9.415 0 0 0-.368 1l3.643-.028c.327.507.639 1.014.923 1.526l-4.869.036a7.562 7.562 0 0 0-.03 1l5.4-.04a9.911 9.911 0 0 1 .551 1.484l-5.762.043a9.733 9.733 0 0 0 .274.992l5.691-.042a6.368 6.368 0 0 1 .026 1.529l-5.1.038c.159.338.329.668.5.992l4.41-.033a9.115 9.115 0 0 1-1.68 3.222c8.377-8.934-6.563-14.789-3.4-22.04-2.944 4.046.352 7.2 2.408 10.306" class="cls-1" data-name="Path 219" transform="translate(-34.903 45.083)"/>
        </clipPath>
        <clipPath id="clip-path-2">
            <path id="Path_218" d="M-50 309.291h832.565V-120H-50z" class="cls-2" data-name="Path 218" transform="translate(50 120)"/>
        </clipPath>
        <clipPath id="clip-path-3">
            <path id="Rectangle_27" d="M0 0h2.602v3.252H0z" class="cls-2" data-name="Rectangle 27"/>
        </clipPath>
        <clipPath id="clip-path-4">
            <path id="Path_217" d="M43.87-15.475q-.264.187-.534.373a9.934 9.934 0 0 1-1.411 2.408q.41-.438.748-.866h-.089a8.614 8.614 0 0 1 .605-.707 8.906 8.906 0 0 0 .681-1.207" class="cls-2" data-name="Path 217" transform="translate(-41.925 15.475)"/>
        </clipPath>
        <clipPath id="clip-path-5">
            <path id="Path_216" d="M31-23.235h13.009V-46H31z" class="cls-2" data-name="Path 216" transform="translate(-31 46)"/>
        </clipPath>
        <clipPath id="clip-path-6">
            <path id="Path_224" d="M35.514-11.761c5.022-5.942-6.215-11.5-.434-20.366-8.273 7.8 3.909 14.385.434 20.366" class="cls-1" data-name="Path 224" transform="translate(-32.14 32.127)"/>
        </clipPath>
        <clipPath id="clip-path-8">
            <path id="Rectangle_28" d="M0 0h3.252v7.805H0z" class="cls-2" data-name="Rectangle 28"/>
        </clipPath>
        <clipPath id="clip-path-9">
            <path id="Path_222" d="M36.246-11.323c1.151 2.379 1.974 4.646.7 6.834 1.88-2.225 1.481-4.4.549-6.707l-.064.037-.088.183.044.3-.149-.082-.259.526q-.131-.263-.259-.526l-.149.082.044-.3-.088-.183-.283-.163" class="cls-2" data-name="Path 222" transform="translate(-36.246 11.323)"/>
        </clipPath>
        <clipPath id="clip-path-10">
            <path id="Path_221" d="M27-11.535h11.708V-33H27z" class="cls-2" data-name="Path 221" transform="translate(-27 33)"/>
        </clipPath>
        <clipPath id="clip-path-11">
            <path id="Path_227" d="M34.859-70s-11.98 15.387 0 39.22c11.98-23.833 0-39.22 0-39.22" class="cls-2" data-name="Path 227" transform="translate(-29.534 70)"/>
        </clipPath>
        <clipPath id="clip-path-13">
            <path id="Path_230" d="M65.918-47.228a20.894 20.894 0 0 0-5.744 1.461A33.928 33.928 0 0 1 48.8-28.661c14.77-6.644 17.118-18.567 17.118-18.567" class="cls-2" data-name="Path 230" transform="translate(-48.796 47.228)"/>
        </clipPath>
        <clipPath id="clip-path-15">
            <path id="Path_233" d="M0-47.228s2.348 11.923 17.122 18.567A33.927 33.927 0 0 1 5.744-45.767 20.9 20.9 0 0 0 0-47.228" class="cls-2" data-name="Path 233" transform="translate(0 47.228)"/>
        </clipPath>
        <clipPath id="clip-path-17">
            <path id="Path_236" d="M59.313-54.926s-8.517 2.684-14.629 12.8a42.488 42.488 0 0 1-1.025 5.78l.1.192A31.135 31.135 0 0 1 58.4-48.409a22.68 22.68 0 0 0 .915-6.516" class="cls-2" data-name="Path 236" transform="translate(-43.659 54.926)"/>
        </clipPath>
        <clipPath id="clip-path-19">
            <path id="Path_239" d="M43.8-26.38l-.138.626c.078-.141.156-.279.235-.417l-.1-.209" class="cls-2" data-name="Path 239" transform="translate(-43.659 26.38)"/>
        </clipPath>
        <clipPath id="clip-path-21">
            <path id="Path_242" d="M45.093-18.362c-.73.332-1.488.65-2.281.954a7.288 7.288 0 0 1-.412 1.15q1.437-1.036 2.694-2.1M42.137-16.7l-1.342.01c-.465.153-.938.3-1.423.442q-.538 1.3-1.171 2.633l.021.053q1.953-1.128 3.648-2.32a7.447 7.447 0 0 0 .266-.818" class="cls-2" data-name="Path 242" transform="translate(-38.202 18.362)"/>
        </clipPath>
        <clipPath id="clip-path-23">
            <path id="Path_245" d="M44.463-17.079q-1.009.358-2.088.686l1.389-.01a6.735 6.735 0 0 1-.275.784q.276-.179.547-.359a6.656 6.656 0 0 0 .427-1.1" class="cls-2" data-name="Path 245" transform="translate(-42.375 17.079)"/>
        </clipPath>
        <clipPath id="clip-path-25">
            <path id="Path_248" d="M38.26-11.306l-.058.122.087-.05-.029-.072" class="cls-2" data-name="Path 248" transform="translate(-38.202 11.306)"/>
        </clipPath>
        <clipPath id="clip-path-27">
            <path id="Path_251" d="M42.571-35.361a42.261 42.261 0 0 0-5.011 13.8q.188 1 .344 2.055l.105-.061.042-.09Q38.677-21 39.208-22.3c-.435.129-.88.254-1.332.374a44.385 44.385 0 0 1 3.541-7.022c.05-.194.1-.389.145-.581a43.87 43.87 0 0 0 1.01-5.835" class="cls-2" data-name="Path 251" transform="translate(-37.56 35.361)"/>
        </clipPath>
        <clipPath id="clip-path-29">
            <path id="Path_254" d="M57.25-44.983a31.116 31.116 0 0 0-14.631 12.237 8.921 8.921 0 0 1 1.181 4.139 6.411 6.411 0 0 1-.22 1.669c.795-.3 1.555-.616 2.288-.945a33.912 33.912 0 0 0 11.385-17.1M42.311-31.225h-.256q-.213.735-.457 1.486l1.259-.01a9.969 9.969 0 0 0-.546-1.479m.747 2.469l-1.8.013q-.264.758-.562 1.529l2.383-.018a6.419 6.419 0 0 0 .034-.652 6.443 6.443 0 0 0-.059-.872m-1.5 2.528l-1.249.009q-.087.214-.177.428c.486-.141.96-.286 1.427-.438" class="cls-2" data-name="Path 254" transform="translate(-40.128 44.983)"/>
        </clipPath>
        <clipPath id="clip-path-31">
            <path id="Path_257" d="M42.8-26.06a35.64 35.64 0 0 0-.253.379q-.151.561-.32 1.13h.26a9.643 9.643 0 0 1 .555 1.465l-1.28.009c-.109.326-.223.655-.341.985l1.825-.013a6.2 6.2 0 0 1 .06.864 6.207 6.207 0 0 1-.034.646l-2.422.018q-.194.49-.4.986l1.27-.009q1.06-.335 2.056-.7A6.208 6.208 0 0 0 44-21.959a8.677 8.677 0 0 0-1.2-4.1" class="cls-2" data-name="Path 257" transform="translate(-40.449 26.06)"/>
        </clipPath>
        <clipPath id="clip-path-33">
            <path id="Path_260" d="M41.752-25.418a43.133 43.133 0 0 0-3.55 6.884q.679-.176 1.335-.367.089-.213.175-.425.2-.5.391-.987.294-.765.555-1.516c.115-.33.226-.66.331-.986q.241-.744.452-1.474.165-.57.311-1.13" class="cls-2" data-name="Path 260" transform="translate(-38.202 25.418)"/>
        </clipPath>
        <clipPath id="clip-path-35">
            <path id="Path_263" d="M36.978-10.664l-.06.235.2-.064-.145-.171" class="cls-2" data-name="Path 263" transform="translate(-36.918 10.664)"/>
        </clipPath>
        <clipPath id="clip-path-37">
            <path id="Path_266" d="M36.939-10.985l-.021.15.121.267.3-.177-.4-.24" class="cls-2" data-name="Path 266" transform="translate(-36.918 10.985)"/>
        </clipPath>
        <clipPath id="clip-path-39">
            <path id="Path_269" d="M7.39-54.926a22.79 22.79 0 0 0 .916 6.536 31.286 31.286 0 0 1 14.9 12.682 42.968 42.968 0 0 1-1.173-6.375C15.915-52.233 7.39-54.926 7.39-54.926m12.316 23.72a46.989 46.989 0 0 0 6.679 4.653c-.425-.872-.894-1.759-1.319-2.663a43.214 43.214 0 0 1-5.36-1.99" class="cls-2" data-name="Path 269" transform="translate(-7.384 54.926)"/>
        </clipPath>
        <clipPath id="clip-path-41">
            <path id="Path_272" d="M34.35-15.475c.443.933.932 1.85 1.374 2.752l.3.169q-.69-1.423-1.269-2.8l-.4-.117" class="cls-2" data-name="Path 272" transform="translate(-34.35 15.475)"/>
        </clipPath>
        <clipPath id="clip-path-43">
            <path id="Path_275" d="M29.855-35.361a44.125 44.125 0 0 0 1.154 6.416 44.394 44.394 0 0 1 3.541 7.022c-.452-.12-.9-.245-1.332-.374q.549 1.346 1.2 2.73l.105.061c.1-.7.218-1.386.344-2.055a42.267 42.267 0 0 0-5.011-13.8" class="cls-2" data-name="Path 275" transform="translate(-29.855 35.361)"/>
        </clipPath>
        <clipPath id="clip-path-45">
            <path id="Path_278" d="M38.026-10.664l-.145.17.2.064-.06-.235" class="cls-2" data-name="Path 278" transform="translate(-37.881 10.664)"/>
        </clipPath>
        <clipPath id="clip-path-47">
            <path id="Path_281" d="M37.957-10.985l-.4.24.3.177.121-.267-.021-.15" class="cls-2" data-name="Path 281" transform="translate(-37.56 10.985)"/>
        </clipPath>
        <clipPath id="clip-path-49">
            <path id="Path_284" d="M8.668-44.983a34.142 34.142 0 0 0 11.362 17.2 42.921 42.921 0 0 0 5.342 1.992 12.188 12.188 0 0 1-1.363-4.752q-.267-.884-.491-1.747a31.212 31.212 0 0 0-14.85-12.693" class="cls-2" data-name="Path 284" transform="translate(-8.668 44.983)"/>
        </clipPath>
        <clipPath id="clip-path-51">
            <path id="Path_287" d="M32.424-22.852a12.307 12.307 0 0 0 1.3 4.686l.367.112a51.32 51.32 0 0 1-1.67-4.8" class="cls-2" data-name="Path 287" transform="translate(-32.424 22.852)"/>
        </clipPath>
        <clipPath id="clip-path-53">
            <path id="Path_290" d="M31.46-25.418q.222.851.486 1.722a50.376 50.376 0 0 0 1.729 4.8c.436.127.882.25 1.335.367a43.147 43.147 0 0 0-3.55-6.884" class="cls-2" data-name="Path 290" transform="translate(-31.46 25.418)"/>
        </clipPath>
        <clipPath id="clip-path-55">
            <path id="Path_293" d="M37.231-14.192a58.2 58.2 0 0 0-.313 2.093l.313.2.313-.2c-.094-.715-.2-1.411-.313-2.093" class="cls-2" data-name="Path 293" transform="translate(-36.918 14.192)"/>
        </clipPath>
        <clipPath id="clip-path-57">
            <path id="Path_296" d="M40.664-25.261q.1-.294.179-.581l-4.358.033a27.01 27.01 0 0 1-.5-.992l5.036-.038a6.457 6.457 0 0 0-.021-1.53l-5.623.042a9.782 9.782 0 0 1-.271-.993l5.693-.043a10.026 10.026 0 0 0-.544-1.484l-5.338.04a7.715 7.715 0 0 1 .03-1l4.811-.037a26.58 26.58 0 0 0-.912-1.526l-3.6.028a9.554 9.554 0 0 1 .363-1l2.6-.02c-2.031-3.109-5.288-6.26-2.379-10.307-2.736 6.345 8.257 11.724 5.495 18.93z" class="cls-2" data-name="Path 296" transform="translate(-34.671 44.662)"/>
        </clipPath>
        <clipPath id="clip-path-59">
            <path id="Path_301" d="M38.426-34.57l-2.628.02a9.6 9.6 0 0 0-.368 1l3.644-.028c.326.507.639 1.015.923 1.529l-4.869.037a7.645 7.645 0 0 0-.03 1l5.4-.04a10 10 0 0 1 .551 1.486l-5.762.043a9.736 9.736 0 0 0 .274.994l5.691-.042a6.4 6.4 0 0 1 .025 1.532l-5.1.038c.159.339.329.67.5.994l4.411-.033q-.076.288-.181.582l.665-.472c2.8-7.218-8.33-12.607-5.561-18.962-2.944 4.054.352 7.21 2.408 10.324" class="cls-1" data-name="Path 301" transform="translate(-34.848 44.895)"/>
        </clipPath>
        <clipPath id="clip-path-61">
            <path id="Rectangle_29" d="M0 0h15.611v22.765H0z" class="cls-2" data-name="Rectangle 29"/>
        </clipPath>
        <clipPath id="clip-path-62">
            <path id="Path_299" d="M31.78-44.9h14.94v22.079H31.78z" class="cls-2" data-name="Path 299" transform="translate(-31.78 44.895)"/>
        </clipPath>
        <clipPath id="clip-path-63">
            <path id="Path_298" d="M32-25.487h11.708V-45H32z" class="cls-2" data-name="Path 298" transform="translate(-32 45)"/>
        </clipPath>
        <clipPath id="clip-path-64">
            <path id="Path_304" d="M35.117-32c-3.629 5.473-.562 9.681 1.032 13.5l-.943.662c-.153-.325-.144-.314-.314-.649-2.057-4.051-4.907-8.752.225-13.51" class="cls-2" data-name="Path 304" transform="translate(-32.224 31.996)"/>
        </clipPath>
        <clipPath id="clip-path-66">
            <path id="Path_309" d="M34.892-18.486c.17.334.161.324.314.649l.943-.661c-1.594-3.817-4.66-8.025-1.031-13.5-5.132 4.758-2.282 9.459-.225 13.51" class="cls-1" data-name="Path 309" transform="translate(-32.224 31.996)"/>
        </clipPath>
        <clipPath id="clip-path-68">
            <path id="Rectangle_30" d="M0 0h14.96v20.814H0z" class="cls-2" data-name="Rectangle 30"/>
        </clipPath>
        <clipPath id="clip-path-69">
            <path id="Path_307" d="M23.768-32H37.7v20.314H23.768z" class="cls-2" data-name="Path 307" transform="translate(-23.768 31.996)"/>
        </clipPath>
        <clipPath id="clip-path-70">
            <path id="Path_306" d="M28-17.69h7.155V-32H28z" class="cls-2" data-name="Path 306" transform="translate(-28 32)"/>
        </clipPath>
        <clipPath id="clip-path-71">
            <path id="Path_312" d="M47.87-16.438a6.007 6.007 0 0 0-4.333 2q-.236.351-.52.709c4.111-.018 5.429-2.669 5.429-2.669a3.26 3.26 0 0 0-.576-.043" class="cls-2" data-name="Path 312" transform="translate(-43.017 16.438)"/>
        </clipPath>
        <clipPath id="clip-path-73">
            <path id="Path_315" d="M43.323-13.551a8.044 8.044 0 0 0-.626.626h.093q.292-.316.534-.626" class="cls-2" data-name="Path 315" transform="translate(-42.696 13.551)"/>
        </clipPath>
        <clipPath id="clip-path-75">
            <path id="Path_318" d="M24.644-16.438a3.154 3.154 0 0 0-.567.043s1.305 2.669 5.38 2.669h.049a6.111 6.111 0 0 0-4.862-2.712" class="cls-2" data-name="Path 318" transform="translate(-24.077 16.438)"/>
        </clipPath>
        <clipPath id="clip-path-77">
            <path id="Path_321" d="M66.014-15.736a4.389 4.389 0 0 1 1.132 3.227v.11c0 .078-.009.16-.015.248a5.69 5.69 0 0 1-.119.805 4.332 4.332 0 0 1-1 2.052 3.967 3.967 0 0 1-3.094 1.074 2.9 2.9 0 0 0-.474.031 3 3 0 0 0-.539.116 1.1 1.1 0 0 0-.776.622v.005a1.379 1.379 0 0 1 .311-1.2 1.581 1.581 0 0 1 1.009-.485l.371-.037.385-.026q.485-.042.781-.095a2.4 2.4 0 0 0 1.379-.668 3.4 3.4 0 0 0 .781-1.628 4.907 4.907 0 0 0 .094-.648q0-.1.009-.194v-.073a3.459 3.459 0 0 0-.845-2.533 2.722 2.722 0 0 0-1.379-.741 3.246 3.246 0 0 0-.534-.074c-.053 0-.1-.005-.153-.005H61.21l-.005.057v6.346a1.12 1.12 0 0 1-.825 1.116 2.2 2.2 0 0 1-.825.142 1.187 1.187 0 0 0 .346-.29 1.439 1.439 0 0 0 .346-.968v-6.345a1.233 1.233 0 0 0-.109-.537.859.859 0 0 0-.238-.311.717.717 0 0 0-.346-.168h3.7a3.54 3.54 0 0 1 .954.1 3.624 3.624 0 0 1 1.809.97" class="cls-2" data-name="Path 321" transform="translate(-59.554 16.814)"/>
        </clipPath>
        <clipPath id="clip-path-79">
            <path id="Path_324" d="M82.995-8.659a1.184 1.184 0 0 0 .4.122c.051.007.1.012.149.015a.663.663 0 0 0 .087-.005h-.005a2.692 2.692 0 0 1-.328.106 2.455 2.455 0 0 1-.354.066 1.993 1.993 0 0 1-.421.015 1.557 1.557 0 0 1-.878-.309 2.331 2.331 0 0 1-.714-1.232 3.538 3.538 0 0 0-.5-1.1 4.189 4.189 0 0 0-1.3-1.256 2.132 2.132 0 0 0 1.019-.063 2.062 2.062 0 0 0 .85-.622 1.812 1.812 0 0 0 .431-1.232 1.617 1.617 0 0 0-.842-1.551 2.1 2.1 0 0 0-.616-.208 2.165 2.165 0 0 0-.231-.036.623.623 0 0 1-.082 0h-1.912v6.436a.962.962 0 0 0 .354.811.821.821 0 0 0 .36.168h-2.429a.815.815 0 0 0 .359-.168.913.913 0 0 0 .247-.298 1.124 1.124 0 0 0 .113-.517v-6.319a.948.948 0 0 0-.36-.811.828.828 0 0 0-.359-.167h3.578a2.938 2.938 0 0 1 .816.121 2.869 2.869 0 0 1 .883.421 2.448 2.448 0 0 1 1 2.118 2.865 2.865 0 0 1-.38 1.4 1.9 1.9 0 0 1-1.057.968 2.772 2.772 0 0 1 .908 1.226l.124.284.261.671a1.66 1.66 0 0 0 .832.947" class="cls-2" data-name="Path 324" transform="translate(-76.033 16.814)"/>
        </clipPath>
        <clipPath id="clip-path-81">
            <path id="Path_327" d="M104.457-16.868a3.04 3.04 0 0 0 .864.431.841.841 0 0 0 .2.031.281.281 0 0 0 .055-.005l.02-.011-.283.286a.375.375 0 0 1 .129.384.29.29 0 0 1-.2.2.209.209 0 0 1-.243-.073.265.265 0 0 0 .154.27.581.581 0 0 0 .307.072v.011l-.005.011-.005.005-.079.02-.084.026a.718.718 0 0 1-.159.021.688.688 0 0 1-.5-.265l-.338.343a.258.258 0 0 0 .03-.114.886.886 0 0 0-.01-.229.866.866 0 0 0-.347-.55l-.02-.01-.02-.011-.06-.037a2.517 2.517 0 0 0-.159-.088 3.115 3.115 0 0 0-.491-.2 3.087 3.087 0 0 0-1.589-.073 2.916 2.916 0 0 0-1.817 1.1 3.3 3.3 0 0 0-.839 2.279 3.3 3.3 0 0 0 .824 2.29 2.948 2.948 0 0 0 1.812 1.105 3.169 3.169 0 0 0 1.589-.062 3.07 3.07 0 0 0 .5-.192c.054-.028.106-.058.159-.089a.622.622 0 0 1 .059-.031l.02-.015.02-.011a.92.92 0 0 0 .442-.561.447.447 0 0 0-.009-.187.3.3 0 0 0-.025-.057.114.114 0 0 0-.02-.031l.288.3a.584.584 0 0 1 .2-.151.488.488 0 0 1 .159-.041l.084-.011.079-.005h.01l.005.005.01.011a.583.583 0 0 0-.234.15.314.314 0 0 0-.1.255l.05.046a.225.225 0 0 1 .2-.119.274.274 0 0 1 .233.114.381.381 0 0 1-.01.447l.283.286-.025-.006a.11.11 0 0 0-.05-.011.8.8 0 0 0-.209.021 2.621 2.621 0 0 0-.869.415l-.025.015-.03.015a.465.465 0 0 1-.074.041c-.07.042-.139.08-.209.115a4.807 4.807 0 0 1-.641.254 4.153 4.153 0 0 1-2.05.078 3.809 3.809 0 0 1-2.339-1.439 4.276 4.276 0 0 1-1.067-2.949A4.3 4.3 0 0 1 99.09-16a3.813 3.813 0 0 1 2.348-1.412 4 4 0 0 1 2.046.094 4.23 4.23 0 0 1 .64.26c.069.036.139.073.209.115a.5.5 0 0 1 .074.042l.03.015z" class="cls-2" data-name="Path 327" transform="translate(-98.006 17.5)"/>
        </clipPath>
        <clipPath id="clip-path-83">
            <path id="Path_330" d="M122.038-9.339a1.755 1.755 0 0 0 .337.53 1.5 1.5 0 0 0 .373.3 1.3 1.3 0 0 0 .429.171h-2.54a.5.5 0 0 0 .286-.171q.235-.276.005-.831-.118-.269-.445-1.044c-.041-.1-.091-.215-.153-.358l-.076-.186-.082-.192q-.21-.5-.348-.82-.93-2.192-1.334-3.151l-.879 2.071q-.215.51-.491 1.158c-.071.171-.151.356-.24.561l-.112.27-.113.26a2.141 2.141 0 0 1 .307-.021h1.84a1.3 1.3 0 0 0 .557-.114 1.039 1.039 0 0 0 .348-.249.944.944 0 0 0 .23-.364 2.253 2.253 0 0 1-.015.867 1.2 1.2 0 0 1-.292.6.941.941 0 0 1-.71.269h-1.958a1.164 1.164 0 0 0-.613.151.942.942 0 0 0-.307.311 1.132 1.132 0 0 0-.1.519.518.518 0 0 0 .117.3.492.492 0 0 0 .282.166H113.8a1.3 1.3 0 0 0 .429-.171 1.684 1.684 0 0 0 .711-.831q.337-.8 1.369-3.233 1.038-2.451 1.375-3.24a.78.78 0 0 0-.005-.831.5.5 0 0 0-.286-.171h2.193a.5.5 0 0 0-.287.171.783.783 0 0 0-.005.831l1.375 3.24 1.37 3.233" class="cls-2" data-name="Path 330" transform="translate(-113.799 16.814)"/>
        </clipPath>
        <clipPath id="clip-path-85">
            <path id="Path_333" d="M141.27-16.814a.824.824 0 0 0-.361.171.988.988 0 0 0-.361.831v6.473a1.151 1.151 0 0 0 .113.53.8.8 0 0 0 .247.3.818.818 0 0 0 .361.172h-2.444a.726.726 0 0 0 .217-.244.511.511 0 0 0-.037-.6l-4.945-5.751v5.59a1.2 1.2 0 0 0 .108.53.882.882 0 0 0 .247.3.818.818 0 0 0 .361.172h-2.439a.812.812 0 0 0 .361-.172.976.976 0 0 0 .361-.831v-6.473a1.174 1.174 0 0 0-.114-.53.946.946 0 0 0-.247-.3.824.824 0 0 0-.361-.171h2.439l-.016.005-.041.031a.6.6 0 0 0-.072.063.738.738 0 0 0-.15.213.647.647 0 0 0 .16.716l4.889 5.684v-5.71a1.182 1.182 0 0 0-.113-.53.875.875 0 0 0-.248-.3.824.824 0 0 0-.361-.171h2.444z" class="cls-2" data-name="Path 333" transform="translate(-132.338 16.814)"/>
        </clipPath>
        <clipPath id="clip-path-87">
            <path id="Path_336" d="M159.123-16.814a.827.827 0 0 0-.361.171.988.988 0 0 0-.361.831v6.473a1.151 1.151 0 0 0 .113.53.807.807 0 0 0 .247.3.821.821 0 0 0 .361.172h-2.444a.719.719 0 0 0 .217-.244.511.511 0 0 0-.037-.6l-4.946-5.751v5.59a1.2 1.2 0 0 0 .108.53.882.882 0 0 0 .247.3.818.818 0 0 0 .361.172h-2.439a.809.809 0 0 0 .361-.172.976.976 0 0 0 .361-.831v-6.473a1.182 1.182 0 0 0-.113-.53.955.955 0 0 0-.248-.3.821.821 0 0 0-.361-.171h2.439l-.015.005a.46.46 0 0 0-.041.031.557.557 0 0 0-.071.063.713.713 0 0 0-.15.213.645.645 0 0 0 .16.716L157.4-10.1v-5.71a1.182 1.182 0 0 0-.113-.53.876.876 0 0 0-.248-.3.818.818 0 0 0-.361-.171h2.444z" class="cls-2" data-name="Path 336" transform="translate(-150.191 16.814)"/>
        </clipPath>
        <clipPath id="clip-path-89">
            <path id="Path_339" d="M176.282-9.339a1.754 1.754 0 0 0 .337.53 1.5 1.5 0 0 0 .373.3 1.3 1.3 0 0 0 .429.171h-2.54a.5.5 0 0 0 .285-.171q.235-.276.006-.831-.118-.269-.446-1.044c-.04-.1-.091-.215-.152-.358l-.077-.186-.082-.192q-.211-.5-.348-.82-.93-2.192-1.335-3.151l-.878 2.071q-.215.51-.491 1.158c-.071.171-.152.356-.24.561l-.112.27a15.4 15.4 0 0 0-.113.26 2.132 2.132 0 0 1 .307-.021h1.84a1.3 1.3 0 0 0 .557-.114 1.037 1.037 0 0 0 .347-.249.937.937 0 0 0 .23-.364 2.254 2.254 0 0 1-.015.867 1.206 1.206 0 0 1-.291.6.943.943 0 0 1-.711.269h-1.957a1.168 1.168 0 0 0-.614.151.941.941 0 0 0-.306.311 1.116 1.116 0 0 0-.1.519.518.518 0 0 0 .117.3.493.493 0 0 0 .282.166h-2.541a1.3 1.3 0 0 0 .429-.171 1.687 1.687 0 0 0 .711-.831q.337-.8 1.369-3.233 1.037-2.451 1.375-3.24a.781.781 0 0 0-.006-.831.5.5 0 0 0-.285-.171h2.193a.5.5 0 0 0-.287.171.783.783 0 0 0-.005.831l1.375 3.24 1.37 3.233" class="cls-2" data-name="Path 339" transform="translate(-168.043 16.814)"/>
        </clipPath>
        <clipPath id="clip-path-91">
            <path id="Path_342" d="M192.821-10.828a.416.416 0 0 0-.005-.063.883.883 0 0 0-.025-.208 1.16 1.16 0 0 0-.263-.555 1.254 1.254 0 0 0-.384-.291 1.726 1.726 0 0 0-1.187-.145 1.4 1.4 0 0 0-.958.711l-.006.005-.01.011v-.005l-.005-.015c0-.014-.006-.027-.01-.042l-.005-.057a1.285 1.285 0 0 1 .005-.343 1.634 1.634 0 0 1 .549-1 1.893 1.893 0 0 1 .7-.353l.182-.057a2.99 2.99 0 0 0 .181-.067 1.483 1.483 0 0 0 .348-.2l.081-.072a1.3 1.3 0 0 0 .358-.981v-.062a.143.143 0 0 0 0-.062.841.841 0 0 0-.024-.2 1.064 1.064 0 0 0-.263-.534 1.832 1.832 0 0 0-1.419-.468h-2.4v6.593h2.77l.01.005h.04c.034 0 .07 0 .111-.005a3.251 3.251 0 0 0 .359-.041 1.711 1.711 0 0 0 .888-.416 1.374 1.374 0 0 0 .368-1.023v-.046zm-.515-1.957a.253.253 0 0 1 .056.025l.04.016.04.016a2.035 2.035 0 0 1 .2.094 2.013 2.013 0 0 1 .475.332 2.054 2.054 0 0 1 .615 1.578 2.258 2.258 0 0 1-.651 1.666 2.507 2.507 0 0 1-1.257.639 3.65 3.65 0 0 1-.525.077q-.091.006-.177.006h-.1l-4.437-.011a.735.735 0 0 0 .354-.166.961.961 0 0 0 .242-.3 1.2 1.2 0 0 0 .111-.53v-6.473a1 1 0 0 0-.353-.831.735.735 0 0 0-.354-.166h4.083a2.66 2.66 0 0 1 2.1.783 2.06 2.06 0 0 1 .475.955 2.864 2.864 0 0 1 .045.369v.125l-.005.041v.032a1.9 1.9 0 0 1-.475 1.391 1.389 1.389 0 0 1-.338.255l-.061.031c-.017.007-.035.014-.055.02s-.05.024-.05.028z" class="cls-2" data-name="Path 342" transform="translate(-186.582 16.814)"/>
        </clipPath>
        <clipPath id="clip-path-93">
            <path id="Path_345" d="M203.921-16.814a.725.725 0 0 0-.331.171 1.037 1.037 0 0 0-.325.831v6.473a1.027 1.027 0 0 0 .325.831.72.72 0 0 0 .331.172h-2.233a.716.716 0 0 0 .331-.172 1.019 1.019 0 0 0 .331-.831v-6.473a1.285 1.285 0 0 0-.1-.53.961.961 0 0 0-.227-.3.727.727 0 0 0-.331-.171z" class="cls-2" data-name="Path 345" transform="translate(-201.688 16.814)"/>
        </clipPath>
        <clipPath id="clip-path-95">
            <path id="Path_348" d="M215.791-12.448a1.809 1.809 0 0 1 .365.888 2.289 2.289 0 0 1-.045.9 2.359 2.359 0 0 1-.869 1.388 3.067 3.067 0 0 1-1.291.613 3.418 3.418 0 0 1-2.189-.218 3.184 3.184 0 0 1-.625-.415 3.977 3.977 0 0 1-.178-.172l-.035-.037-.03-.031-.046-.046a2.587 2.587 0 0 0-.7-.608.579.579 0 0 0-.157-.051h-.051l-.01.005.213-.172a.3.3 0 0 1-.1-.249.3.3 0 0 1 .152-.244.223.223 0 0 1 .259.021.275.275 0 0 0-.213-.234.592.592 0 0 0-.32.005v-.005l.005-.011.005-.011v-.005l.077-.041.076-.041a.728.728 0 0 1 .157-.058.626.626 0 0 1 .345.042.851.851 0 0 1 .331.212l.244-.2a.166.166 0 0 0-.035.088.454.454 0 0 0 .02.187 1.707 1.707 0 0 0 .4.67 1.998 1.998 0 0 0 .213.213 2.114 2.114 0 0 0 .427.276 2.383 2.383 0 0 0 1.545.14 1.489 1.489 0 0 0 .9-.411 1.658 1.658 0 0 0 .5-.842 1.23 1.23 0 0 0-.127-.94 3.845 3.845 0 0 0-1.692-1.092 7.071 7.071 0 0 1-1.915-1.086 2.121 2.121 0 0 1-.488-.732 1.886 1.886 0 0 1-.127-.889 1.821 1.821 0 0 1 .818-1.377 3.073 3.073 0 0 1 2.194-.43 3.51 3.51 0 0 1 .7.218l.127.057.051.027.051.021a.664.664 0 0 0 .132.057 4.077 4.077 0 0 0 .929.416 1.044 1.044 0 0 0 .219.031.252.252 0 0 0 .056-.005.038.038 0 0 0 .025-.006l-.351.338a.488.488 0 0 1 .188.556.727.727 0 0 1-.309.525.86.86 0 0 1-.157.067l-.081.027-.081.021.007-.002h-.011l-.01-.006h-.005a.583.583 0 0 0 .239-.224.275.275 0 0 0 0-.317.231.231 0 0 1-.178.2.283.283 0 0 1-.269-.073.223.223 0 0 1-.046-.052l-.284.276a.215.215 0 0 0 .035-.115.834.834 0 0 0-.01-.224.84.84 0 0 0-.34-.53h-.015l-.02-.011-.061-.031c-.054-.025-.11-.048-.168-.072a2.585 2.585 0 0 0-.529-.156 1.938 1.938 0 0 0-1.442.249.843.843 0 0 0-.412.66.988.988 0 0 0 .331.805 7.272 7.272 0 0 0 1.745.969 5.19 5.19 0 0 1 1.942 1.319" class="cls-2" data-name="Path 348" transform="translate(-209.928 17.5)"/>
        </clipPath>
        <clipPath id="clip-path-97">
            <path id="Path_351" d="M91.793-8.582a1.335 1.335 0 0 0-1.164.679 1.336 1.336 0 0 0 .5 1.823 1.326 1.326 0 0 0 .66.175 1.343 1.343 0 0 0 1.168-.677 1.337 1.337 0 0 0-.5-1.823 1.333 1.333 0 0 0-.661-.177" class="cls-2" data-name="Path 351" transform="translate(-90.453 8.582)"/>
        </clipPath>
    </defs>
    <g id="logo_drcannabis" data-name="logo/drcannabis" transform="translate(19161 14402)">
        <g id="Group_66" class="cls-3" data-name="Group 66" transform="translate(22.702 16.207)">
            <g id="Group_65" class="cls-4" data-name="Group 65" transform="translate(-55.224 -48.729)">
                <g id="Group_64" class="cls-5" data-name="Group 64" transform="translate(59.19 67.646)">
                    <g id="Group_63" class="cls-6" data-name="Group 63" transform="translate(.601 .342)">
                        <g id="Group_62" class="cls-7" data-name="Group 62" transform="translate(-7.106 -19.855)">
                            <path id="Path_215" d="M36.925-11.19h8.45v-9.285h-8.45z" class="cls-8" data-name="Path 215" transform="translate(-33.071 37.077)"/>
                        </g>
                    </g>
                </g>
            </g>
        </g>
        <g id="Group_71" class="cls-9" data-name="Group 71" transform="translate(20.905 24.634)">
            <g id="Group_70" class="cls-4" data-name="Group 70" transform="translate(-53.427 -57.156)">
                <g id="Group_69" class="cls-10" data-name="Group 69" transform="translate(55.938 70.248)">
                    <g id="Group_68" class="cls-11" data-name="Group 68" transform="translate(.16 .441)">
                        <g id="Group_67" class="cls-12" data-name="Group 67" transform="translate(-6.014 -14.1)">
                            <path id="Path_220" d="M31.246-2.985h8.537v-13.338h-8.537z" class="cls-13" data-name="Path 220" transform="translate(-28.484 27.17)"/>
                        </g>
                    </g>
                </g>
            </g>
        </g>
        <g id="Group_73" class="cls-14" data-name="Group 73" transform="translate(19.21)">
            <g id="Group_72" class="cls-4" data-name="Group 72" transform="translate(-51.732 -32.522)">
                <path id="Path_225" d="M24.534-29.275h17.154V-75H24.534z" class="cls-15" data-name="Path 225" transform="translate(23.946 104.27)"/>
            </g>
        </g>
        <g id="Group_75" class="cls-16" data-name="Group 75" transform="translate(31.739 14.812)">
            <g id="Group_74" class="cls-4" data-name="Group 74" transform="translate(-64.261 -47.334)">
                <path id="Path_228" d="M43.8-27.157h23.622v-25.071H43.8z" class="cls-17" data-name="Path 228" transform="translate(17.213 96.31)"/>
            </g>
        </g>
        <g id="Group_77" class="cls-18" data-name="Group 77" transform="translate(0 14.812)">
            <g id="Group_76" class="cls-4" data-name="Group 76" transform="translate(-32.522 -47.334)">
                <path id="Path_231" d="M-5-27.157h23.627v-25.071H-5z" class="cls-17" data-name="Path 231" transform="translate(34.27 96.31)"/>
            </g>
        </g>
        <g id="Group_79" class="cls-19" data-name="Group 79" transform="translate(28.398 9.805)">
            <g id="Group_78" class="cls-4" data-name="Group 78" transform="translate(-60.92 -42.327)">
                <path id="Path_234" d="M38.659-34.646h22.165v-25.28H38.659z" class="cls-20" data-name="Path 234" transform="translate(19.008 99)"/>
            </g>
        </g>
        <g id="Group_81" class="cls-21" data-name="Group 81" transform="translate(28.398 28.372)">
            <g id="Group_80" class="cls-4" data-name="Group 80" transform="translate(-60.92 -60.894)">
                <path id="Path_237" d="M38.659-24.25H45.4v-7.13h-6.741z" class="cls-22" data-name="Path 237" transform="translate(19.008 89.022)"/>
            </g>
        </g>
        <g id="Group_83" class="cls-23" data-name="Group 83" transform="translate(24.848 33.588)">
            <g id="Group_82" class="cls-4" data-name="Group 82" transform="translate(-57.37 -66.11)">
                <path id="Path_240" d="M33.2-12.059h13.4v-11.3H33.2z" class="cls-20" data-name="Path 240" transform="translate(20.916 86.219)"/>
            </g>
        </g>
        <g id="Group_85" class="cls-24" data-name="Group 85" transform="translate(27.563 34.422)">
            <g id="Group_84" class="cls-4" data-name="Group 84" transform="translate(-60.085 -66.944)">
                <path id="Path_243" d="M37.375-14.114h8.592v-7.965h-8.592z" class="cls-22" data-name="Path 243" transform="translate(19.457 85.771)"/>
            </g>
        </g>
        <g id="Group_87" class="cls-25" data-name="Group 87" transform="translate(24.848 38.177)">
            <g id="Group_86" class="cls-4" data-name="Group 86" transform="translate(-57.37 -70.699)">
                <path id="Path_246" d="M33.2-9.679h6.592v-6.626H33.2z" class="cls-26" data-name="Path 246" transform="translate(20.916 83.753)"/>
            </g>
        </g>
        <g id="Group_89" class="cls-27" data-name="Group 89" transform="translate(24.431 22.531)">
            <g id="Group_88" class="cls-4" data-name="Group 88" transform="translate(-56.953 -55.053)">
                <path id="Path_249" d="M32.56-18h11.516v-22.361H32.56z" class="cls-28" data-name="Path 249" transform="translate(21.14 92.161)"/>
            </g>
        </g>
        <g id="Group_91" class="cls-29" data-name="Group 91" transform="translate(26.101 16.272)">
            <g id="Group_90" class="cls-4" data-name="Group 90" transform="translate(-58.623 -48.794)">
                <path id="Path_252" d="M35.128-24.286h23.627v-25.7H35.128z" class="cls-30" data-name="Path 252" transform="translate(20.243 95.525)"/>
            </g>
        </g>
        <g id="Group_93" class="cls-31" data-name="Group 93" transform="translate(26.31 28.581)">
            <g id="Group_92" class="cls-4" data-name="Group 92" transform="translate(-58.832 -61.103)">
                <path id="Path_255" d="M35.449-18.088H45.5V-31.06H35.449z" class="cls-32" data-name="Path 255" transform="translate(20.131 88.91)"/>
            </g>
        </g>
        <g id="Group_95" class="cls-33" data-name="Group 95" transform="translate(24.848 28.998)">
            <g id="Group_94" class="cls-4" data-name="Group 94" transform="translate(-57.37 -61.52)">
                <path id="Path_258" d="M33.2-17.029h10.056v-13.389H33.2z" class="cls-34" data-name="Path 258" transform="translate(20.916 88.686)"/>
            </g>
        </g>
        <g id="Group_97" class="cls-35" data-name="Group 97" transform="translate(24.013 38.594)">
            <g id="Group_96" class="cls-4" data-name="Group 96" transform="translate(-56.535 -71.116)">
                <path id="Path_261" d="M31.918-8.925h6.709v-6.739h-6.709z" class="cls-26" data-name="Path 261" transform="translate(21.365 83.529)"/>
            </g>
        </g>
        <g id="Group_99" class="cls-36" data-name="Group 99" transform="translate(24.013 38.386)">
            <g id="Group_98" class="cls-4" data-name="Group 98" transform="translate(-56.535 -70.908)">
                <path id="Path_264" d="M31.918-9.063h6.922v-6.922h-6.922z" class="cls-28" data-name="Path 264" transform="translate(21.365 83.641)"/>
            </g>
        </g>
        <g id="Group_101" class="cls-37" data-name="Group 101" transform="translate(4.803 9.805)">
            <g id="Group_100" class="cls-4" data-name="Group 100" transform="translate(-37.325 -42.327)">
                <path id="Path_267" d="M2.384-25.049H27.89v-34.877H2.384z" class="cls-13" data-name="Path 267" transform="translate(31.689 99)"/>
            </g>
        </g>
        <g id="Group_103" class="cls-38" data-name="Group 103" transform="translate(22.342 35.465)">
            <g id="Group_102" class="cls-4" data-name="Group 102" transform="translate(-54.865 -67.987)">
                <path id="Path_270" d="M29.35-11.05h8.175v-9.425H29.35z" class="cls-39" data-name="Path 270" transform="translate(22.263 85.21)"/>
            </g>
        </g>
        <g id="Group_105" class="cls-40" data-name="Group 105" transform="translate(19.419 22.531)">
            <g id="Group_104" class="cls-4" data-name="Group 104" transform="translate(-51.941 -55.053)">
                <path id="Path_273" d="M24.855-18h11.516v-22.361H24.855z" class="cls-41" data-name="Path 273" transform="translate(23.834 92.161)"/>
            </g>
        </g>
        <g id="Group_107" class="cls-42" data-name="Group 107" transform="translate(24.639 38.594)">
            <g id="Group_106" class="cls-4" data-name="Group 106" transform="translate(-57.161 -71.116)">
                <path id="Path_276" d="M32.881-8.925h6.709v-6.739h-6.709z" class="cls-39" data-name="Path 276" transform="translate(21.028 83.529)"/>
            </g>
        </g>
        <g id="Group_109" class="cls-43" data-name="Group 109" transform="translate(24.431 38.386)">
            <g id="Group_108" class="cls-4" data-name="Group 108" transform="translate(-56.953 -70.908)">
                <path id="Path_279" d="M32.56-9.063h6.922v-6.922H32.56z" class="cls-41" data-name="Path 279" transform="translate(21.14 83.641)"/>
            </g>
        </g>
        <g id="Group_111" class="cls-44" data-name="Group 111" transform="translate(5.638 16.272)">
            <g id="Group_110" class="cls-4" data-name="Group 110" transform="translate(-38.16 -48.794)">
                <path id="Path_282" d="M3.668-24.286h23.209v-25.7H3.668z" class="cls-45" data-name="Path 282" transform="translate(31.24 95.525)"/>
            </g>
        </g>
        <g id="Group_113" class="cls-46" data-name="Group 113" transform="translate(21.09 30.667)">
            <g id="Group_112" class="cls-4" data-name="Group 112" transform="translate(-53.612 -63.189)">
                <path id="Path_285" d="M27.424-16.55H35.6v-11.3h-8.176z" class="cls-47" data-name="Path 285" transform="translate(22.936 87.789)"/>
            </g>
        </g>
        <g id="Group_115" class="cls-48" data-name="Group 115" transform="translate(20.463 28.998)">
            <g id="Group_114" class="cls-4" data-name="Group 114" transform="translate(-52.985 -61.52)">
                <path id="Path_288" d="M26.46-17.029h10.055v-13.389H26.46z" class="cls-47" data-name="Path 288" transform="translate(23.273 88.686)"/>
            </g>
        </g>
        <g id="Group_117" class="cls-49" data-name="Group 117" transform="translate(24.013 36.3)">
            <g id="Group_116" class="cls-4" data-name="Group 116" transform="translate(-56.535 -68.822)">
                <path id="Path_291" d="M31.918-10.393h7.131v-8.8h-7.131z" class="cls-50" data-name="Path 291" transform="translate(21.365 84.762)"/>
            </g>
        </g>
        <g id="Group_119" class="cls-51" data-name="Group 119" transform="translate(22.551 16.481)">
            <g id="Group_118" class="cls-4" data-name="Group 118" transform="translate(-55.073 -49.003)">
                <path id="Path_294" d="M29.671-23.756h13.6v-25.906h-13.6z" class="cls-52" data-name="Path 294" transform="translate(22.15 95.413)"/>
            </g>
        </g>
        <g id="Group_124" class="cls-53" data-name="Group 124" transform="translate(22.667 16.329)">
            <g id="Group_123" class="cls-4" data-name="Group 123" transform="translate(-55.189 -48.852)">
                <g id="Group_122" class="cls-54" data-name="Group 122" transform="translate(52.686 48.783)">
                    <g id="Group_121" class="cls-55" data-name="Group 121" transform="translate(.508 .068)">
                        <g id="Group_120" class="cls-56" data-name="Group 120" transform="translate(.143 -.068)">
                            <path id="Path_297" d="M26.78-21.311h21.445V-49.9H26.78z" class="cls-52" data-name="Path 297" transform="translate(-30.175 46.711)"/>
                        </g>
                    </g>
                </g>
            </g>
        </g>
        <g id="Group_126" class="cls-57" data-name="Group 126" transform="translate(20.96 24.719)">
            <g id="Group_125" class="cls-4" data-name="Group 125" transform="translate(-53.482 -57.241)">
                <path id="Path_302" d="M27.224-16.332h10.429V-37H27.224z" class="cls-52" data-name="Path 302" transform="translate(23.006 90.985)"/>
            </g>
        </g>
        <g id="Group_131" class="cls-58" data-name="Group 131" transform="translate(20.96 24.719)">
            <g id="Group_130" class="cls-4" data-name="Group 130" transform="translate(-53.482 -57.241)">
                <g id="Group_129" class="cls-59" data-name="Group 129" transform="translate(47.482 57.239)">
                    <g id="Group_128" class="cls-60" data-name="Group 128" transform="translate(.5 .002)">
                        <g id="Group_127" class="cls-61" data-name="Group 127" transform="translate(2.753 -.002)">
                            <path id="Path_305" d="M18.768-10.178H39.2V-37H18.768z" class="cls-52" data-name="Path 305" transform="translate(-24.773 33.746)"/>
                        </g>
                    </g>
                </g>
            </g>
        </g>
        <g id="Group_133" class="cls-62" data-name="Group 133" transform="translate(27.98 34.839)">
            <g id="Group_132" class="cls-4" data-name="Group 132" transform="translate(-60.502 -67.361)">
                <path id="Path_310" d="M38.017-12.221h11.934v-9.216H38.017z" class="cls-20" data-name="Path 310" transform="translate(19.233 85.547)"/>
            </g>
        </g>
        <g id="Group_135" class="cls-63" data-name="Group 135" transform="translate(27.771 36.717)">
            <g id="Group_134" class="cls-4" data-name="Group 134" transform="translate(-60.294 -69.239)">
                <path id="Path_313" d="M37.7-11.421h7.131v-7.13H37.7z" class="cls-22" data-name="Path 313" transform="translate(19.345 84.538)"/>
            </g>
        </g>
        <g id="Group_137" class="cls-64" data-name="Group 137" transform="translate(15.661 34.839)">
            <g id="Group_136" class="cls-4" data-name="Group 136" transform="translate(-48.183 -67.361)">
                <path id="Path_316" d="M19.077-12.221H31.01v-9.216H19.077z" class="cls-13" data-name="Path 316" transform="translate(25.854 85.547)"/>
            </g>
        </g>
        <g id="Group_139" class="cls-65" data-name="Group 139" transform="translate(38.736 34.594)">
            <g id="Group_138" class="cls-4" data-name="Group 138" transform="translate(-71.259 -67.116)">
                <path id="Path_319" d="M54.554-5.939h14.1v-15.875h-14.1z" class="cls-52" data-name="Path 319" transform="translate(13.452 85.678)"/>
            </g>
        </g>
        <g id="Group_141" class="cls-66" data-name="Group 141" transform="translate(49.455 34.594)">
            <g id="Group_140" class="cls-4" data-name="Group 140" transform="translate(-81.977 -67.116)">
                <path id="Path_322" d="M71.033-6.832h14.1v-14.982h-14.1z" class="cls-52" data-name="Path 322" transform="translate(7.692 85.678)"/>
            </g>
        </g>
        <g id="Group_143" class="cls-67" data-name="Group 143" transform="translate(63.747 34.148)">
            <g id="Group_142" class="cls-4" data-name="Group 142" transform="translate(-96.269 -66.67)">
                <path id="Path_325" d="M93.006-7.071h14.1V-22.5h-14.1z" class="cls-52" data-name="Path 325" transform="translate(.011 85.918)"/>
            </g>
        </g>
        <g id="Group_145" class="cls-68" data-name="Group 145" transform="translate(74.019 34.594)">
            <g id="Group_144" class="cls-4" data-name="Group 144" transform="translate(-106.541 -67.116)">
                <path id="Path_328" d="M108.8-6.832h15.883v-14.982H108.8z" class="cls-52" data-name="Path 328" transform="translate(-5.509 85.678)"/>
            </g>
        </g>
        <g id="Group_147" class="cls-69" data-name="Group 147" transform="translate(86.078 34.594)">
            <g id="Group_146" class="cls-4" data-name="Group 146" transform="translate(-118.6 -67.116)">
                <path id="Path_331" d="M127.338-6.832h15.437v-14.982h-15.437z" class="cls-52" data-name="Path 331" transform="translate(-11.99 85.678)"/>
            </g>
        </g>
        <g id="Group_149" class="cls-70" data-name="Group 149" transform="translate(97.69 34.594)">
            <g id="Group_148" class="cls-4" data-name="Group 148" transform="translate(-130.212 -67.116)">
                <path id="Path_334" d="M145.191-6.832h15.437v-14.982h-15.437z" class="cls-52" data-name="Path 334" transform="translate(-18.231 85.678)"/>
            </g>
        </g>
        <g id="Group_151" class="cls-71" data-name="Group 151" transform="translate(109.302 34.594)">
            <g id="Group_150" class="cls-4" data-name="Group 150" transform="translate(-141.824 -67.116)">
                <path id="Path_337" d="M163.043-6.832h15.883v-14.982h-15.883z" class="cls-52" data-name="Path 337" transform="translate(-24.471 85.678)"/>
            </g>
        </g>
        <g id="Group_153" class="cls-72" data-name="Group 153" transform="translate(121.361 34.594)">
            <g id="Group_152" class="cls-4" data-name="Group 152" transform="translate(-153.883 -67.116)">
                <path id="Path_340" d="M181.582-6.832h13.65v-14.982h-13.65z" class="cls-52" data-name="Path 340" transform="translate(-30.952 85.678)"/>
            </g>
        </g>
        <g id="Group_155" class="cls-73" data-name="Group 155" transform="translate(131.186 34.594)">
            <g id="Group_154" class="cls-4" data-name="Group 154" transform="translate(-163.709 -67.116)">
                <path id="Path_343" d="M196.688-6.832h8.737v-14.982h-8.737z" class="cls-52" data-name="Path 343" transform="translate(-36.232 85.678)"/>
            </g>
        </g>
        <g id="Group_157" class="cls-74" data-name="Group 157" transform="translate(136.546 34.148)">
            <g id="Group_156" class="cls-4" data-name="Group 156" transform="translate(-169.068 -66.67)">
                <path id="Path_346" d="M204.928-7.071h12.757V-22.5h-12.757z" class="cls-52" data-name="Path 346" transform="translate(-39.112 85.918)"/>
            </g>
        </g>
        <g id="Group_159" class="cls-75" data-name="Group 159" transform="translate(58.834 39.949)">
            <g id="Group_158" class="cls-4" data-name="Group 158" transform="translate(-91.356 -72.471)">
                <path id="Path_349" d="M85.453-4.4h9.184v-9.182h-9.184z" class="cls-20" data-name="Path 349" transform="translate(2.651 82.801)"/>
            </g>
        </g>
    </g>
</svg>
